<?xml version="1.0" standalone="no"?>
<!DOCTYPE svg PUBLIC "-//W3C//DTD SVG 20010904//EN"
 "http://www.w3.org/TR/2001/REC-SVG-20010904/DTD/svg10.dtd">
<svg version="1.0" xmlns="http://www.w3.org/2000/svg"
 width="400.000000pt" height="400.000000pt" viewBox="0 0 400.000000 400.000000"
 preserveAspectRatio="xMidYMid meet">
<metadata>
Created by potrace 1.11, written by Peter Selinger 2001-2013
</metadata>
<g transform="translate(0.000000,400.000000) scale(0.100000,-0.100000)"
fill="#000000" stroke="none">
<path d="M0 2000 l0 -2000 2000 0 2000 0 0 2000 0 2000 -2000 0 -2000 0 0
-2000z m1400 600 l0 -600 -200 0 -200 0 0 600 0 600 200 0 200 0 0 -600z
m1600 0 l0 -200 -600 0 -600 0 0 200 0 200 600 0 600 0 0 -200z m-882 -616
c212 -43 381 -193 449 -399 38 -114 38 -256 0 -370 -64 -193 -207 -329 -413
-391 -92 -28 -237 -24 -339 9 -205 68 -356 238 -399 449 -20 97 -20 139 0 236
47 232 229 417 459 466 92 19 150 19 243 0z"/>
<path d="M1915 1581 c-157 -72 -152 -299 7 -366 100 -41 214 3 259 100 35 75
16 179 -42 232 -58 53 -152 67 -224 34z"/>
</g>
</svg>
